<mxfile host="app.diagrams.net" modified="2023-11-07T20:01:59.468Z" agent="Mozilla/5.0 (Macintosh; Intel Mac OS X 10_15_7) AppleWebKit/605.1.15 (KHTML, like Gecko) Version/15.4 Safari/605.1.15" etag="Zot6auiajCVZECstP9BC" version="22.0.8" type="device">
  <diagram name="Страница — 1" id="aG3Gh-yic8GDXnGV7eZx">
    <mxGraphModel dx="1026" dy="692" grid="1" gridSize="10" guides="1" tooltips="1" connect="1" arrows="1" fold="1" page="1" pageScale="1" pageWidth="3300" pageHeight="4681" math="0" shadow="0">
      <root>
        <mxCell id="0" />
        <mxCell id="1" parent="0" />
        <mxCell id="WjrbeNiLL71HOwCfRCCR-1" value="" style="ellipse;whiteSpace=wrap;html=1;" vertex="1" parent="1">
          <mxGeometry x="1470" y="70" width="120" height="80" as="geometry" />
        </mxCell>
        <mxCell id="WjrbeNiLL71HOwCfRCCR-2" value="Login Page&lt;br&gt;(Everyone)" style="text;html=1;strokeColor=none;fillColor=none;align=center;verticalAlign=middle;whiteSpace=wrap;rounded=0;" vertex="1" parent="1">
          <mxGeometry x="1490" y="92.5" width="80" height="35" as="geometry" />
        </mxCell>
        <mxCell id="WjrbeNiLL71HOwCfRCCR-3" value="" style="ellipse;whiteSpace=wrap;html=1;" vertex="1" parent="1">
          <mxGeometry x="880" y="240" width="120" height="80" as="geometry" />
        </mxCell>
        <mxCell id="WjrbeNiLL71HOwCfRCCR-4" value="Main Page&lt;br&gt;(Admin)" style="text;html=1;strokeColor=none;fillColor=none;align=center;verticalAlign=middle;whiteSpace=wrap;rounded=0;" vertex="1" parent="1">
          <mxGeometry x="900" y="262.5" width="80" height="35" as="geometry" />
        </mxCell>
        <mxCell id="WjrbeNiLL71HOwCfRCCR-5" value="" style="ellipse;whiteSpace=wrap;html=1;" vertex="1" parent="1">
          <mxGeometry x="1470" y="240" width="120" height="80" as="geometry" />
        </mxCell>
        <mxCell id="WjrbeNiLL71HOwCfRCCR-6" value="Main Page&lt;br&gt;(Data Producer)" style="text;html=1;strokeColor=none;fillColor=none;align=center;verticalAlign=middle;whiteSpace=wrap;rounded=0;" vertex="1" parent="1">
          <mxGeometry x="1490" y="262.5" width="80" height="35" as="geometry" />
        </mxCell>
        <mxCell id="WjrbeNiLL71HOwCfRCCR-7" value="" style="ellipse;whiteSpace=wrap;html=1;" vertex="1" parent="1">
          <mxGeometry x="1750" y="250" width="120" height="80" as="geometry" />
        </mxCell>
        <mxCell id="WjrbeNiLL71HOwCfRCCR-8" value="Main Page&lt;br&gt;(Editor)" style="text;html=1;strokeColor=none;fillColor=none;align=center;verticalAlign=middle;whiteSpace=wrap;rounded=0;" vertex="1" parent="1">
          <mxGeometry x="1770" y="272.5" width="80" height="35" as="geometry" />
        </mxCell>
        <mxCell id="WjrbeNiLL71HOwCfRCCR-9" value="" style="ellipse;whiteSpace=wrap;html=1;" vertex="1" parent="1">
          <mxGeometry x="1150" y="400" width="120" height="80" as="geometry" />
        </mxCell>
        <mxCell id="WjrbeNiLL71HOwCfRCCR-11" value="" style="ellipse;whiteSpace=wrap;html=1;" vertex="1" parent="1">
          <mxGeometry x="960" y="400" width="120" height="80" as="geometry" />
        </mxCell>
        <mxCell id="WjrbeNiLL71HOwCfRCCR-12" value="Departments Management Menu (Admin)" style="text;html=1;strokeColor=none;fillColor=none;align=center;verticalAlign=middle;whiteSpace=wrap;rounded=0;" vertex="1" parent="1">
          <mxGeometry x="980" y="422.5" width="80" height="35" as="geometry" />
        </mxCell>
        <mxCell id="WjrbeNiLL71HOwCfRCCR-13" value="" style="ellipse;whiteSpace=wrap;html=1;" vertex="1" parent="1">
          <mxGeometry x="780" y="400" width="120" height="80" as="geometry" />
        </mxCell>
        <mxCell id="WjrbeNiLL71HOwCfRCCR-14" value="Supply Management Menu (Admin)" style="text;html=1;strokeColor=none;fillColor=none;align=center;verticalAlign=middle;whiteSpace=wrap;rounded=0;" vertex="1" parent="1">
          <mxGeometry x="800" y="422.5" width="80" height="35" as="geometry" />
        </mxCell>
        <mxCell id="WjrbeNiLL71HOwCfRCCR-15" value="" style="ellipse;whiteSpace=wrap;html=1;" vertex="1" parent="1">
          <mxGeometry x="2410" y="240" width="120" height="80" as="geometry" />
        </mxCell>
        <mxCell id="WjrbeNiLL71HOwCfRCCR-16" value="Complaints Menu (Everyone)" style="text;html=1;strokeColor=none;fillColor=none;align=center;verticalAlign=middle;whiteSpace=wrap;rounded=0;" vertex="1" parent="1">
          <mxGeometry x="2430" y="262.5" width="80" height="35" as="geometry" />
        </mxCell>
        <mxCell id="WjrbeNiLL71HOwCfRCCR-17" value="" style="ellipse;whiteSpace=wrap;html=1;" vertex="1" parent="1">
          <mxGeometry x="580" y="400" width="120" height="80" as="geometry" />
        </mxCell>
        <mxCell id="WjrbeNiLL71HOwCfRCCR-18" value="System Management Menu (Admin)" style="text;html=1;strokeColor=none;fillColor=none;align=center;verticalAlign=middle;whiteSpace=wrap;rounded=0;" vertex="1" parent="1">
          <mxGeometry x="1170" y="422.5" width="80" height="35" as="geometry" />
        </mxCell>
        <mxCell id="WjrbeNiLL71HOwCfRCCR-19" value="" style="endArrow=classic;startArrow=classic;html=1;rounded=0;exitX=0.5;exitY=0;exitDx=0;exitDy=0;entryX=0;entryY=0.5;entryDx=0;entryDy=0;" edge="1" parent="1" source="WjrbeNiLL71HOwCfRCCR-17" target="WjrbeNiLL71HOwCfRCCR-3">
          <mxGeometry width="50" height="50" relative="1" as="geometry">
            <mxPoint x="750" y="320" as="sourcePoint" />
            <mxPoint x="800" y="270" as="targetPoint" />
          </mxGeometry>
        </mxCell>
        <mxCell id="WjrbeNiLL71HOwCfRCCR-20" value="" style="endArrow=classic;startArrow=classic;html=1;rounded=0;entryX=0.5;entryY=0;entryDx=0;entryDy=0;exitX=0;exitY=1;exitDx=0;exitDy=0;" edge="1" parent="1" source="WjrbeNiLL71HOwCfRCCR-3" target="WjrbeNiLL71HOwCfRCCR-13">
          <mxGeometry width="50" height="50" relative="1" as="geometry">
            <mxPoint x="860" y="600" as="sourcePoint" />
            <mxPoint x="910" y="550" as="targetPoint" />
          </mxGeometry>
        </mxCell>
        <mxCell id="WjrbeNiLL71HOwCfRCCR-21" value="" style="endArrow=classic;startArrow=classic;html=1;rounded=0;entryX=1;entryY=1;entryDx=0;entryDy=0;exitX=0.5;exitY=0;exitDx=0;exitDy=0;" edge="1" parent="1" source="WjrbeNiLL71HOwCfRCCR-11" target="WjrbeNiLL71HOwCfRCCR-3">
          <mxGeometry width="50" height="50" relative="1" as="geometry">
            <mxPoint x="940" y="590" as="sourcePoint" />
            <mxPoint x="990" y="540" as="targetPoint" />
          </mxGeometry>
        </mxCell>
        <mxCell id="WjrbeNiLL71HOwCfRCCR-23" value="" style="endArrow=classic;startArrow=classic;html=1;rounded=0;entryX=1;entryY=0.5;entryDx=0;entryDy=0;exitX=0.5;exitY=0;exitDx=0;exitDy=0;" edge="1" parent="1" source="WjrbeNiLL71HOwCfRCCR-9" target="WjrbeNiLL71HOwCfRCCR-3">
          <mxGeometry width="50" height="50" relative="1" as="geometry">
            <mxPoint x="1040" y="370" as="sourcePoint" />
            <mxPoint x="1090" y="320" as="targetPoint" />
          </mxGeometry>
        </mxCell>
        <mxCell id="WjrbeNiLL71HOwCfRCCR-10" value="Accounts Management Menu (Admin)" style="text;html=1;strokeColor=none;fillColor=none;align=center;verticalAlign=middle;whiteSpace=wrap;rounded=0;" vertex="1" parent="1">
          <mxGeometry x="600" y="422.5" width="80" height="35" as="geometry" />
        </mxCell>
        <mxCell id="WjrbeNiLL71HOwCfRCCR-25" value="" style="ellipse;whiteSpace=wrap;html=1;" vertex="1" parent="1">
          <mxGeometry x="580" y="520" width="120" height="80" as="geometry" />
        </mxCell>
        <mxCell id="WjrbeNiLL71HOwCfRCCR-26" value="Create/Edit Accounts Menu(Admin)" style="text;html=1;strokeColor=none;fillColor=none;align=center;verticalAlign=middle;whiteSpace=wrap;rounded=0;" vertex="1" parent="1">
          <mxGeometry x="600" y="542.5" width="80" height="35" as="geometry" />
        </mxCell>
        <mxCell id="WjrbeNiLL71HOwCfRCCR-27" value="" style="endArrow=classic;startArrow=classic;html=1;rounded=0;entryX=0.5;entryY=1;entryDx=0;entryDy=0;exitX=0.5;exitY=0;exitDx=0;exitDy=0;" edge="1" parent="1" source="WjrbeNiLL71HOwCfRCCR-25" target="WjrbeNiLL71HOwCfRCCR-17">
          <mxGeometry width="50" height="50" relative="1" as="geometry">
            <mxPoint x="500" y="550" as="sourcePoint" />
            <mxPoint x="550" y="500" as="targetPoint" />
          </mxGeometry>
        </mxCell>
        <mxCell id="WjrbeNiLL71HOwCfRCCR-28" value="" style="ellipse;whiteSpace=wrap;html=1;" vertex="1" parent="1">
          <mxGeometry x="960" y="520" width="120" height="80" as="geometry" />
        </mxCell>
        <mxCell id="WjrbeNiLL71HOwCfRCCR-29" value="Create/Edit Departments Menu(Admin)" style="text;html=1;strokeColor=none;fillColor=none;align=center;verticalAlign=middle;whiteSpace=wrap;rounded=0;" vertex="1" parent="1">
          <mxGeometry x="980" y="542.5" width="80" height="35" as="geometry" />
        </mxCell>
        <mxCell id="WjrbeNiLL71HOwCfRCCR-30" value="" style="endArrow=classic;startArrow=classic;html=1;rounded=0;entryX=0.5;entryY=1;entryDx=0;entryDy=0;exitX=0.5;exitY=0;exitDx=0;exitDy=0;" edge="1" parent="1" source="WjrbeNiLL71HOwCfRCCR-28" target="WjrbeNiLL71HOwCfRCCR-11">
          <mxGeometry width="50" height="50" relative="1" as="geometry">
            <mxPoint x="1030" y="510" as="sourcePoint" />
            <mxPoint x="1020" y="500" as="targetPoint" />
          </mxGeometry>
        </mxCell>
        <mxCell id="WjrbeNiLL71HOwCfRCCR-31" value="" style="ellipse;whiteSpace=wrap;html=1;" vertex="1" parent="1">
          <mxGeometry x="780" y="520" width="120" height="80" as="geometry" />
        </mxCell>
        <mxCell id="WjrbeNiLL71HOwCfRCCR-32" value="Create/Edit Supply Menu(Admin)" style="text;html=1;strokeColor=none;fillColor=none;align=center;verticalAlign=middle;whiteSpace=wrap;rounded=0;" vertex="1" parent="1">
          <mxGeometry x="800" y="542.5" width="80" height="35" as="geometry" />
        </mxCell>
        <mxCell id="WjrbeNiLL71HOwCfRCCR-33" value="" style="endArrow=classic;startArrow=classic;html=1;rounded=0;entryX=0.5;entryY=1;entryDx=0;entryDy=0;exitX=0.5;exitY=0;exitDx=0;exitDy=0;" edge="1" parent="1" source="WjrbeNiLL71HOwCfRCCR-31" target="WjrbeNiLL71HOwCfRCCR-13">
          <mxGeometry width="50" height="50" relative="1" as="geometry">
            <mxPoint x="780" y="510" as="sourcePoint" />
            <mxPoint x="780" y="470" as="targetPoint" />
          </mxGeometry>
        </mxCell>
        <mxCell id="WjrbeNiLL71HOwCfRCCR-34" value="" style="ellipse;whiteSpace=wrap;html=1;" vertex="1" parent="1">
          <mxGeometry x="1370" y="400" width="120" height="80" as="geometry" />
        </mxCell>
        <mxCell id="WjrbeNiLL71HOwCfRCCR-35" value="Upload Data Menu&amp;nbsp;(Data Producer)" style="text;html=1;strokeColor=none;fillColor=none;align=center;verticalAlign=middle;whiteSpace=wrap;rounded=0;" vertex="1" parent="1">
          <mxGeometry x="1390" y="422.5" width="80" height="35" as="geometry" />
        </mxCell>
        <mxCell id="WjrbeNiLL71HOwCfRCCR-36" value="" style="ellipse;whiteSpace=wrap;html=1;" vertex="1" parent="1">
          <mxGeometry x="1540" y="400" width="120" height="80" as="geometry" />
        </mxCell>
        <mxCell id="WjrbeNiLL71HOwCfRCCR-37" value="Orders Processing Menu&amp;nbsp;(D.P./Editor)" style="text;html=1;strokeColor=none;fillColor=none;align=center;verticalAlign=middle;whiteSpace=wrap;rounded=0;" vertex="1" parent="1">
          <mxGeometry x="1560" y="422.5" width="80" height="35" as="geometry" />
        </mxCell>
        <mxCell id="WjrbeNiLL71HOwCfRCCR-38" value="" style="endArrow=classic;startArrow=classic;html=1;rounded=0;entryX=0;entryY=1;entryDx=0;entryDy=0;exitX=0.5;exitY=0;exitDx=0;exitDy=0;" edge="1" parent="1" source="WjrbeNiLL71HOwCfRCCR-34" target="WjrbeNiLL71HOwCfRCCR-5">
          <mxGeometry width="50" height="50" relative="1" as="geometry">
            <mxPoint x="1280" y="520" as="sourcePoint" />
            <mxPoint x="1330" y="470" as="targetPoint" />
          </mxGeometry>
        </mxCell>
        <mxCell id="WjrbeNiLL71HOwCfRCCR-39" value="" style="ellipse;whiteSpace=wrap;html=1;" vertex="1" parent="1">
          <mxGeometry x="1540" y="520" width="120" height="80" as="geometry" />
        </mxCell>
        <mxCell id="WjrbeNiLL71HOwCfRCCR-40" value="Detailed Order View Menu&amp;nbsp;(D.P./Editor)" style="text;html=1;strokeColor=none;fillColor=none;align=center;verticalAlign=middle;whiteSpace=wrap;rounded=0;" vertex="1" parent="1">
          <mxGeometry x="1560" y="542.5" width="80" height="35" as="geometry" />
        </mxCell>
        <mxCell id="WjrbeNiLL71HOwCfRCCR-41" value="" style="ellipse;whiteSpace=wrap;html=1;" vertex="1" parent="1">
          <mxGeometry x="1540" y="640" width="120" height="80" as="geometry" />
        </mxCell>
        <mxCell id="WjrbeNiLL71HOwCfRCCR-42" value="View/Edit Document Menu&amp;nbsp;(D.P./Editor)" style="text;html=1;strokeColor=none;fillColor=none;align=center;verticalAlign=middle;whiteSpace=wrap;rounded=0;" vertex="1" parent="1">
          <mxGeometry x="1560" y="662.5" width="80" height="35" as="geometry" />
        </mxCell>
        <mxCell id="WjrbeNiLL71HOwCfRCCR-43" value="" style="endArrow=classic;startArrow=classic;html=1;rounded=0;entryX=1;entryY=1;entryDx=0;entryDy=0;exitX=0.5;exitY=0;exitDx=0;exitDy=0;" edge="1" parent="1" source="WjrbeNiLL71HOwCfRCCR-36" target="WjrbeNiLL71HOwCfRCCR-5">
          <mxGeometry width="50" height="50" relative="1" as="geometry">
            <mxPoint x="1530" y="540" as="sourcePoint" />
            <mxPoint x="1580" y="490" as="targetPoint" />
          </mxGeometry>
        </mxCell>
        <mxCell id="WjrbeNiLL71HOwCfRCCR-44" value="" style="endArrow=classic;startArrow=classic;html=1;rounded=0;entryX=0.5;entryY=1;entryDx=0;entryDy=0;exitX=0.5;exitY=0;exitDx=0;exitDy=0;" edge="1" parent="1" source="WjrbeNiLL71HOwCfRCCR-39" target="WjrbeNiLL71HOwCfRCCR-36">
          <mxGeometry width="50" height="50" relative="1" as="geometry">
            <mxPoint x="1410" y="610" as="sourcePoint" />
            <mxPoint x="1460" y="560" as="targetPoint" />
          </mxGeometry>
        </mxCell>
        <mxCell id="WjrbeNiLL71HOwCfRCCR-45" value="" style="endArrow=classic;startArrow=classic;html=1;rounded=0;entryX=0.5;entryY=1;entryDx=0;entryDy=0;exitX=0.5;exitY=0;exitDx=0;exitDy=0;" edge="1" parent="1" source="WjrbeNiLL71HOwCfRCCR-41" target="WjrbeNiLL71HOwCfRCCR-39">
          <mxGeometry width="50" height="50" relative="1" as="geometry">
            <mxPoint x="1500" y="670" as="sourcePoint" />
            <mxPoint x="1550" y="620" as="targetPoint" />
          </mxGeometry>
        </mxCell>
        <mxCell id="WjrbeNiLL71HOwCfRCCR-46" value="" style="endArrow=classic;startArrow=classic;html=1;rounded=0;exitX=0.5;exitY=0;exitDx=0;exitDy=0;entryX=0;entryY=1;entryDx=0;entryDy=0;" edge="1" parent="1" source="WjrbeNiLL71HOwCfRCCR-36" target="WjrbeNiLL71HOwCfRCCR-7">
          <mxGeometry width="50" height="50" relative="1" as="geometry">
            <mxPoint x="1710" y="380" as="sourcePoint" />
            <mxPoint x="1760" y="330" as="targetPoint" />
          </mxGeometry>
        </mxCell>
        <mxCell id="WjrbeNiLL71HOwCfRCCR-47" value="" style="ellipse;whiteSpace=wrap;html=1;" vertex="1" parent="1">
          <mxGeometry x="1920" y="400" width="120" height="80" as="geometry" />
        </mxCell>
        <mxCell id="WjrbeNiLL71HOwCfRCCR-48" value="Limits Management Menu (Editor)" style="text;html=1;strokeColor=none;fillColor=none;align=center;verticalAlign=middle;whiteSpace=wrap;rounded=0;" vertex="1" parent="1">
          <mxGeometry x="1940" y="422.5" width="80" height="35" as="geometry" />
        </mxCell>
        <mxCell id="WjrbeNiLL71HOwCfRCCR-49" value="" style="ellipse;whiteSpace=wrap;html=1;" vertex="1" parent="1">
          <mxGeometry x="2010" y="520" width="120" height="80" as="geometry" />
        </mxCell>
        <mxCell id="WjrbeNiLL71HOwCfRCCR-50" value="Identify Limits Menu (Editor)" style="text;html=1;strokeColor=none;fillColor=none;align=center;verticalAlign=middle;whiteSpace=wrap;rounded=0;" vertex="1" parent="1">
          <mxGeometry x="2030" y="542.5" width="80" height="35" as="geometry" />
        </mxCell>
        <mxCell id="WjrbeNiLL71HOwCfRCCR-51" value="" style="ellipse;whiteSpace=wrap;html=1;" vertex="1" parent="1">
          <mxGeometry x="1820" y="520" width="120" height="80" as="geometry" />
        </mxCell>
        <mxCell id="WjrbeNiLL71HOwCfRCCR-52" value="Edit Limits Menu (Editor)" style="text;html=1;strokeColor=none;fillColor=none;align=center;verticalAlign=middle;whiteSpace=wrap;rounded=0;" vertex="1" parent="1">
          <mxGeometry x="1840" y="542.5" width="80" height="35" as="geometry" />
        </mxCell>
        <mxCell id="WjrbeNiLL71HOwCfRCCR-53" value="" style="ellipse;whiteSpace=wrap;html=1;" vertex="1" parent="1">
          <mxGeometry x="1820" y="640" width="120" height="80" as="geometry" />
        </mxCell>
        <mxCell id="WjrbeNiLL71HOwCfRCCR-54" value="Positions List Menu (Editor)" style="text;html=1;strokeColor=none;fillColor=none;align=center;verticalAlign=middle;whiteSpace=wrap;rounded=0;" vertex="1" parent="1">
          <mxGeometry x="1840" y="662.5" width="80" height="35" as="geometry" />
        </mxCell>
        <mxCell id="WjrbeNiLL71HOwCfRCCR-55" value="" style="ellipse;whiteSpace=wrap;html=1;" vertex="1" parent="1">
          <mxGeometry x="1730" y="760" width="120" height="80" as="geometry" />
        </mxCell>
        <mxCell id="WjrbeNiLL71HOwCfRCCR-56" value="Position Info Menu (Editor)" style="text;html=1;strokeColor=none;fillColor=none;align=center;verticalAlign=middle;whiteSpace=wrap;rounded=0;" vertex="1" parent="1">
          <mxGeometry x="1750" y="782.5" width="80" height="35" as="geometry" />
        </mxCell>
        <mxCell id="WjrbeNiLL71HOwCfRCCR-57" value="" style="ellipse;whiteSpace=wrap;html=1;" vertex="1" parent="1">
          <mxGeometry x="1910" y="760" width="120" height="80" as="geometry" />
        </mxCell>
        <mxCell id="WjrbeNiLL71HOwCfRCCR-58" value="Detailed Position Info Menu (Editor)" style="text;html=1;strokeColor=none;fillColor=none;align=center;verticalAlign=middle;whiteSpace=wrap;rounded=0;" vertex="1" parent="1">
          <mxGeometry x="1930" y="782.5" width="80" height="35" as="geometry" />
        </mxCell>
        <mxCell id="WjrbeNiLL71HOwCfRCCR-59" value="" style="endArrow=classic;startArrow=classic;html=1;rounded=0;entryX=0;entryY=1;entryDx=0;entryDy=0;exitX=0.5;exitY=0;exitDx=0;exitDy=0;" edge="1" parent="1" source="WjrbeNiLL71HOwCfRCCR-51" target="WjrbeNiLL71HOwCfRCCR-47">
          <mxGeometry width="50" height="50" relative="1" as="geometry">
            <mxPoint x="2040" y="710" as="sourcePoint" />
            <mxPoint x="2090" y="660" as="targetPoint" />
          </mxGeometry>
        </mxCell>
        <mxCell id="WjrbeNiLL71HOwCfRCCR-60" value="" style="endArrow=classic;startArrow=classic;html=1;rounded=0;entryX=0.5;entryY=1;entryDx=0;entryDy=0;" edge="1" parent="1" source="WjrbeNiLL71HOwCfRCCR-53" target="WjrbeNiLL71HOwCfRCCR-51">
          <mxGeometry width="50" height="50" relative="1" as="geometry">
            <mxPoint x="1940" y="730" as="sourcePoint" />
            <mxPoint x="2010.7106781186549" y="680" as="targetPoint" />
          </mxGeometry>
        </mxCell>
        <mxCell id="WjrbeNiLL71HOwCfRCCR-61" value="" style="endArrow=classic;startArrow=classic;html=1;rounded=0;entryX=0;entryY=1;entryDx=0;entryDy=0;exitX=0.5;exitY=0;exitDx=0;exitDy=0;" edge="1" parent="1" source="WjrbeNiLL71HOwCfRCCR-55" target="WjrbeNiLL71HOwCfRCCR-53">
          <mxGeometry width="50" height="50" relative="1" as="geometry">
            <mxPoint x="1800" y="970" as="sourcePoint" />
            <mxPoint x="1850" y="920" as="targetPoint" />
          </mxGeometry>
        </mxCell>
        <mxCell id="WjrbeNiLL71HOwCfRCCR-62" value="" style="endArrow=classic;startArrow=classic;html=1;rounded=0;entryX=1;entryY=1;entryDx=0;entryDy=0;exitX=0.5;exitY=0;exitDx=0;exitDy=0;" edge="1" parent="1" source="WjrbeNiLL71HOwCfRCCR-57" target="WjrbeNiLL71HOwCfRCCR-53">
          <mxGeometry width="50" height="50" relative="1" as="geometry">
            <mxPoint x="1870" y="990" as="sourcePoint" />
            <mxPoint x="1920" y="940" as="targetPoint" />
          </mxGeometry>
        </mxCell>
        <mxCell id="WjrbeNiLL71HOwCfRCCR-63" value="" style="endArrow=classic;startArrow=classic;html=1;rounded=0;entryX=1;entryY=0.5;entryDx=0;entryDy=0;exitX=0;exitY=0.5;exitDx=0;exitDy=0;" edge="1" parent="1" source="WjrbeNiLL71HOwCfRCCR-57" target="WjrbeNiLL71HOwCfRCCR-55">
          <mxGeometry width="50" height="50" relative="1" as="geometry">
            <mxPoint x="1810" y="930" as="sourcePoint" />
            <mxPoint x="1860" y="880" as="targetPoint" />
          </mxGeometry>
        </mxCell>
        <mxCell id="WjrbeNiLL71HOwCfRCCR-64" value="" style="ellipse;whiteSpace=wrap;html=1;" vertex="1" parent="1">
          <mxGeometry x="1820" y="880" width="120" height="80" as="geometry" />
        </mxCell>
        <mxCell id="WjrbeNiLL71HOwCfRCCR-65" value="Position Stat Menu (Editor)" style="text;html=1;strokeColor=none;fillColor=none;align=center;verticalAlign=middle;whiteSpace=wrap;rounded=0;" vertex="1" parent="1">
          <mxGeometry x="1840" y="902.5" width="80" height="35" as="geometry" />
        </mxCell>
        <mxCell id="WjrbeNiLL71HOwCfRCCR-66" value="" style="ellipse;whiteSpace=wrap;html=1;" vertex="1" parent="1">
          <mxGeometry x="2000" y="880" width="120" height="80" as="geometry" />
        </mxCell>
        <mxCell id="WjrbeNiLL71HOwCfRCCR-67" value="Create/Edit Limit Menu (Editor)" style="text;html=1;strokeColor=none;fillColor=none;align=center;verticalAlign=middle;whiteSpace=wrap;rounded=0;" vertex="1" parent="1">
          <mxGeometry x="2020" y="902.5" width="80" height="35" as="geometry" />
        </mxCell>
        <mxCell id="WjrbeNiLL71HOwCfRCCR-68" value="" style="endArrow=classic;startArrow=classic;html=1;rounded=0;entryX=0;entryY=1;entryDx=0;entryDy=0;exitX=0.5;exitY=0;exitDx=0;exitDy=0;" edge="1" parent="1" source="WjrbeNiLL71HOwCfRCCR-64" target="WjrbeNiLL71HOwCfRCCR-57">
          <mxGeometry width="50" height="50" relative="1" as="geometry">
            <mxPoint x="1760" y="1070" as="sourcePoint" />
            <mxPoint x="1810" y="1020" as="targetPoint" />
          </mxGeometry>
        </mxCell>
        <mxCell id="WjrbeNiLL71HOwCfRCCR-69" value="" style="endArrow=classic;startArrow=classic;html=1;rounded=0;entryX=1;entryY=1;entryDx=0;entryDy=0;exitX=0.5;exitY=0;exitDx=0;exitDy=0;" edge="1" parent="1" source="WjrbeNiLL71HOwCfRCCR-66" target="WjrbeNiLL71HOwCfRCCR-57">
          <mxGeometry width="50" height="50" relative="1" as="geometry">
            <mxPoint x="2130" y="870" as="sourcePoint" />
            <mxPoint x="2180" y="820" as="targetPoint" />
          </mxGeometry>
        </mxCell>
        <mxCell id="WjrbeNiLL71HOwCfRCCR-70" value="" style="ellipse;whiteSpace=wrap;html=1;" vertex="1" parent="1">
          <mxGeometry x="2010" y="640" width="120" height="80" as="geometry" />
        </mxCell>
        <mxCell id="WjrbeNiLL71HOwCfRCCR-71" value="Departments List Menu (Editor)" style="text;html=1;strokeColor=none;fillColor=none;align=center;verticalAlign=middle;whiteSpace=wrap;rounded=0;" vertex="1" parent="1">
          <mxGeometry x="2030" y="662.5" width="80" height="35" as="geometry" />
        </mxCell>
        <mxCell id="WjrbeNiLL71HOwCfRCCR-72" value="" style="endArrow=classic;startArrow=classic;html=1;rounded=0;entryX=0.5;entryY=1;entryDx=0;entryDy=0;exitX=0.5;exitY=0;exitDx=0;exitDy=0;" edge="1" parent="1" source="WjrbeNiLL71HOwCfRCCR-70" target="WjrbeNiLL71HOwCfRCCR-49">
          <mxGeometry width="50" height="50" relative="1" as="geometry">
            <mxPoint x="2220" y="810" as="sourcePoint" />
            <mxPoint x="2270" y="760" as="targetPoint" />
          </mxGeometry>
        </mxCell>
        <mxCell id="WjrbeNiLL71HOwCfRCCR-73" value="" style="endArrow=classic;startArrow=classic;html=1;rounded=0;entryX=0;entryY=1;entryDx=0;entryDy=0;exitX=1;exitY=0;exitDx=0;exitDy=0;" edge="1" parent="1" source="WjrbeNiLL71HOwCfRCCR-53" target="WjrbeNiLL71HOwCfRCCR-49">
          <mxGeometry width="50" height="50" relative="1" as="geometry">
            <mxPoint x="2040" y="690" as="sourcePoint" />
            <mxPoint x="2090" y="640" as="targetPoint" />
          </mxGeometry>
        </mxCell>
        <mxCell id="WjrbeNiLL71HOwCfRCCR-74" value="" style="endArrow=classic;startArrow=classic;html=1;rounded=0;entryX=0;entryY=0.5;entryDx=0;entryDy=0;exitX=1;exitY=0.5;exitDx=0;exitDy=0;" edge="1" parent="1" source="WjrbeNiLL71HOwCfRCCR-53" target="WjrbeNiLL71HOwCfRCCR-70">
          <mxGeometry width="50" height="50" relative="1" as="geometry">
            <mxPoint x="2070" y="770" as="sourcePoint" />
            <mxPoint x="2120" y="720" as="targetPoint" />
          </mxGeometry>
        </mxCell>
        <mxCell id="WjrbeNiLL71HOwCfRCCR-75" value="" style="endArrow=classic;startArrow=classic;html=1;rounded=0;entryX=1;entryY=1;entryDx=0;entryDy=0;exitX=0.5;exitY=0;exitDx=0;exitDy=0;" edge="1" parent="1" source="WjrbeNiLL71HOwCfRCCR-49" target="WjrbeNiLL71HOwCfRCCR-47">
          <mxGeometry width="50" height="50" relative="1" as="geometry">
            <mxPoint x="2180" y="530" as="sourcePoint" />
            <mxPoint x="2230" y="480" as="targetPoint" />
          </mxGeometry>
        </mxCell>
        <mxCell id="WjrbeNiLL71HOwCfRCCR-76" value="" style="endArrow=classic;startArrow=classic;html=1;rounded=0;entryX=1;entryY=1;entryDx=0;entryDy=0;exitX=0.5;exitY=0;exitDx=0;exitDy=0;" edge="1" parent="1" source="WjrbeNiLL71HOwCfRCCR-47" target="WjrbeNiLL71HOwCfRCCR-7">
          <mxGeometry width="50" height="50" relative="1" as="geometry">
            <mxPoint x="1760" y="480" as="sourcePoint" />
            <mxPoint x="1810" y="430" as="targetPoint" />
          </mxGeometry>
        </mxCell>
        <mxCell id="WjrbeNiLL71HOwCfRCCR-77" value="" style="ellipse;whiteSpace=wrap;html=1;" vertex="1" parent="1">
          <mxGeometry x="2330" y="360" width="120" height="80" as="geometry" />
        </mxCell>
        <mxCell id="WjrbeNiLL71HOwCfRCCR-78" value="Complaint by Theme Menu (Everyone)" style="text;html=1;strokeColor=none;fillColor=none;align=center;verticalAlign=middle;whiteSpace=wrap;rounded=0;" vertex="1" parent="1">
          <mxGeometry x="2350" y="382.5" width="80" height="35" as="geometry" />
        </mxCell>
        <mxCell id="WjrbeNiLL71HOwCfRCCR-79" value="" style="ellipse;whiteSpace=wrap;html=1;" vertex="1" parent="1">
          <mxGeometry x="2490" y="360" width="120" height="80" as="geometry" />
        </mxCell>
        <mxCell id="WjrbeNiLL71HOwCfRCCR-80" value="Create Complaint Menu (Everyone)" style="text;html=1;strokeColor=none;fillColor=none;align=center;verticalAlign=middle;whiteSpace=wrap;rounded=0;" vertex="1" parent="1">
          <mxGeometry x="2510" y="382.5" width="80" height="35" as="geometry" />
        </mxCell>
        <mxCell id="WjrbeNiLL71HOwCfRCCR-81" value="" style="ellipse;whiteSpace=wrap;html=1;" vertex="1" parent="1">
          <mxGeometry x="2330" y="480" width="120" height="80" as="geometry" />
        </mxCell>
        <mxCell id="WjrbeNiLL71HOwCfRCCR-82" value="Full Complaint Info Menu (Everyone)" style="text;html=1;strokeColor=none;fillColor=none;align=center;verticalAlign=middle;whiteSpace=wrap;rounded=0;" vertex="1" parent="1">
          <mxGeometry x="2350" y="502.5" width="80" height="35" as="geometry" />
        </mxCell>
        <mxCell id="WjrbeNiLL71HOwCfRCCR-83" value="" style="endArrow=classic;startArrow=classic;html=1;rounded=0;entryX=0.5;entryY=1;entryDx=0;entryDy=0;exitX=0.5;exitY=0;exitDx=0;exitDy=0;" edge="1" parent="1" source="WjrbeNiLL71HOwCfRCCR-81" target="WjrbeNiLL71HOwCfRCCR-77">
          <mxGeometry width="50" height="50" relative="1" as="geometry">
            <mxPoint x="2260" y="510" as="sourcePoint" />
            <mxPoint x="2310" y="460" as="targetPoint" />
          </mxGeometry>
        </mxCell>
        <mxCell id="WjrbeNiLL71HOwCfRCCR-84" value="" style="endArrow=classic;startArrow=classic;html=1;rounded=0;entryX=1;entryY=1;entryDx=0;entryDy=0;exitX=0.5;exitY=0;exitDx=0;exitDy=0;" edge="1" parent="1" source="WjrbeNiLL71HOwCfRCCR-79" target="WjrbeNiLL71HOwCfRCCR-15">
          <mxGeometry width="50" height="50" relative="1" as="geometry">
            <mxPoint x="2530" y="510" as="sourcePoint" />
            <mxPoint x="2580" y="460" as="targetPoint" />
          </mxGeometry>
        </mxCell>
        <mxCell id="WjrbeNiLL71HOwCfRCCR-85" value="" style="endArrow=classic;startArrow=classic;html=1;rounded=0;entryX=0;entryY=1;entryDx=0;entryDy=0;exitX=0.5;exitY=0;exitDx=0;exitDy=0;" edge="1" parent="1" source="WjrbeNiLL71HOwCfRCCR-77" target="WjrbeNiLL71HOwCfRCCR-15">
          <mxGeometry width="50" height="50" relative="1" as="geometry">
            <mxPoint x="2240" y="340" as="sourcePoint" />
            <mxPoint x="2290" y="290" as="targetPoint" />
          </mxGeometry>
        </mxCell>
        <mxCell id="WjrbeNiLL71HOwCfRCCR-86" value="" style="endArrow=classic;startArrow=classic;html=1;rounded=0;exitX=1;exitY=0;exitDx=0;exitDy=0;entryX=0;entryY=0;entryDx=0;entryDy=0;" edge="1" parent="1" source="WjrbeNiLL71HOwCfRCCR-3" target="WjrbeNiLL71HOwCfRCCR-15">
          <mxGeometry width="50" height="50" relative="1" as="geometry">
            <mxPoint x="1140" y="230" as="sourcePoint" />
            <mxPoint x="1190" y="180" as="targetPoint" />
            <Array as="points">
              <mxPoint x="982" y="200" />
              <mxPoint x="2428" y="200" />
            </Array>
          </mxGeometry>
        </mxCell>
        <mxCell id="WjrbeNiLL71HOwCfRCCR-88" value="" style="endArrow=classic;startArrow=classic;html=1;rounded=0;exitX=1;exitY=0;exitDx=0;exitDy=0;entryX=0.5;entryY=0;entryDx=0;entryDy=0;" edge="1" parent="1" source="WjrbeNiLL71HOwCfRCCR-5" target="WjrbeNiLL71HOwCfRCCR-15">
          <mxGeometry width="50" height="50" relative="1" as="geometry">
            <mxPoint x="1660" y="320" as="sourcePoint" />
            <mxPoint x="1710" y="270" as="targetPoint" />
            <Array as="points">
              <mxPoint x="1572" y="210" />
              <mxPoint x="2470" y="210" />
            </Array>
          </mxGeometry>
        </mxCell>
        <mxCell id="WjrbeNiLL71HOwCfRCCR-89" value="" style="endArrow=classic;startArrow=classic;html=1;rounded=0;exitX=1;exitY=0;exitDx=0;exitDy=0;entryX=1;entryY=0;entryDx=0;entryDy=0;" edge="1" parent="1" source="WjrbeNiLL71HOwCfRCCR-7" target="WjrbeNiLL71HOwCfRCCR-15">
          <mxGeometry width="50" height="50" relative="1" as="geometry">
            <mxPoint x="1950" y="350" as="sourcePoint" />
            <mxPoint x="2000" y="300" as="targetPoint" />
            <Array as="points">
              <mxPoint x="1852" y="220" />
              <mxPoint x="2512" y="220" />
            </Array>
          </mxGeometry>
        </mxCell>
        <mxCell id="WjrbeNiLL71HOwCfRCCR-109" value="" style="endArrow=classic;startArrow=classic;html=1;rounded=0;exitX=0.5;exitY=0;exitDx=0;exitDy=0;entryX=0;entryY=1;entryDx=0;entryDy=0;" edge="1" parent="1" source="WjrbeNiLL71HOwCfRCCR-3" target="WjrbeNiLL71HOwCfRCCR-1">
          <mxGeometry width="50" height="50" relative="1" as="geometry">
            <mxPoint x="1160" y="140" as="sourcePoint" />
            <mxPoint x="1210" y="90" as="targetPoint" />
            <Array as="points">
              <mxPoint x="940" y="140" />
            </Array>
          </mxGeometry>
        </mxCell>
        <mxCell id="WjrbeNiLL71HOwCfRCCR-110" value="" style="endArrow=classic;startArrow=classic;html=1;rounded=0;entryX=0.5;entryY=1;entryDx=0;entryDy=0;exitX=0.5;exitY=0;exitDx=0;exitDy=0;" edge="1" parent="1" source="WjrbeNiLL71HOwCfRCCR-5" target="WjrbeNiLL71HOwCfRCCR-1">
          <mxGeometry width="50" height="50" relative="1" as="geometry">
            <mxPoint x="1330" y="360" as="sourcePoint" />
            <mxPoint x="1380" y="310" as="targetPoint" />
          </mxGeometry>
        </mxCell>
        <mxCell id="WjrbeNiLL71HOwCfRCCR-111" value="" style="endArrow=classic;startArrow=classic;html=1;rounded=0;entryX=1;entryY=1;entryDx=0;entryDy=0;exitX=0.5;exitY=0;exitDx=0;exitDy=0;" edge="1" parent="1" source="WjrbeNiLL71HOwCfRCCR-7" target="WjrbeNiLL71HOwCfRCCR-1">
          <mxGeometry width="50" height="50" relative="1" as="geometry">
            <mxPoint x="1630" y="340" as="sourcePoint" />
            <mxPoint x="1680" y="290" as="targetPoint" />
            <Array as="points">
              <mxPoint x="1810" y="140" />
            </Array>
          </mxGeometry>
        </mxCell>
      </root>
    </mxGraphModel>
  </diagram>
</mxfile>
